<svg xmlns="http://www.w3.org/2000/svg" viewBox="0 0 220.95 220.95"><defs><style>.cls-1{fill:#ef3e4f;}.cls-2{fill:#d1232d;}.cls-3{fill:#fff;}.cls-4{fill:#f2f4f8;}</style></defs><g id="Layer_2" data-name="Layer 2"><circle class="cls-1" cx="110.48" cy="110.48" r="110.48"/><path class="cls-2" d="M221,110.48A110.47,110.47,0,0,0,110.48,0V221A110.47,110.47,0,0,0,221,110.48Z"/><path class="cls-3" d="M161.8,59.15h0a16,16,0,0,0-22.62,0L111.51,86.82a1.45,1.45,0,0,1-2.06,0L81.78,59.15a16,16,0,0,0-22.63,0h0a16,16,0,0,0,0,22.63l27.67,27.67a1.45,1.45,0,0,1,0,2.06L59.15,139.18a16,16,0,0,0,0,22.62h0a16,16,0,0,0,22.63,0l27.67-27.66a1.45,1.45,0,0,1,2.06,0l27.67,27.66a16,16,0,0,0,22.62,0h0a16,16,0,0,0,0-22.62l-27.67-27.67a1.47,1.47,0,0,1,0-2.06L161.8,81.78A16,16,0,0,0,161.8,59.15Z"/><path class="cls-4" d="M161.8,81.78a16,16,0,0,0,0-22.63h0a16,16,0,0,0-22.62,0L111.51,86.82a1.49,1.49,0,0,1-1,.43v46.46a1.48,1.48,0,0,1,1,.42l27.67,27.67a16,16,0,0,0,22.62,0h0a16,16,0,0,0,0-22.62l-27.67-27.67a1.47,1.47,0,0,1,0-2.06Z"/></g></svg>