<svg xmlns="http://www.w3.org/2000/svg" viewBox="0 0 360 340"><defs><style>.cls-1{font-size:12px;font-family:OpenSans-Regular, Open Sans;}.cls-1,.cls-2,.cls-3{fill:#b2b2b2;}.cls-2{isolation:isolate;opacity:0.15;}</style></defs><g id="Layer_2" data-name="Layer 2"><text class="cls-1" transform="translate(189.62 118.9)">R/2</text><text class="cls-1" transform="translate(286.37 187.59)">R</text><path class="cls-2" d="M235.6,170.76H180v55.65a55.62,55.62,0,0,0,55.6-55.65Z"/><polygon class="cls-2" points="180 170.81 124.4 170.81 180 282.01 180 170.81"/><rect class="cls-2" x="69.35" y="59.35" width="110.65" height="111.46"/><path class="cls-3" d="M352,170.65l-6.7-3.9v3.1H292v-2.6a.8.8,0,0,0-1.6,0v2.6H236.3v-2.6a.8.8,0,0,0-1.6,0v2.6H180.6v-54.1h2.6a.8.8,0,1,0,0-1.6h-2.6v-54h2.6a.79.79,0,0,0,.8-.8.74.74,0,0,0-.8-.8h-2.6V16.25h3.1L180,9.55l-3.9,6.7h3.1v42.4h-2.6a.79.79,0,0,0-.8.8.74.74,0,0,0,.8.8h2.6v54.1h-2.6a.8.8,0,1,0,0,1.6h2.6v53.9H125.1v-2.6a.8.8,0,1,0-1.6,0v2.6h-54v-2.6a.79.79,0,0,0-.8-.8.71.71,0,0,0-.7.8v2.6H8.8a.79.79,0,0,0-.8.8.74.74,0,0,0,.8.8H68v2.6a.79.79,0,0,0,.8.8.74.74,0,0,0,.8-.8v-2.6h54.1v2.6a.8.8,0,1,0,1.6,0v-2.6h54.1v54.1h-2.6a.79.79,0,0,0-.8.8.74.74,0,0,0,.8.8h2.6v54.1h-2.6a.79.79,0,0,0-.8.8.74.74,0,0,0,.8.8h2.6v46.8a.79.79,0,0,0,.8.8.74.74,0,0,0,.8-.8v-46.8h2.6a.8.8,0,0,0,0-1.6H181v-54.1h2.6a.79.79,0,0,0,.8-.8.74.74,0,0,0-.8-.8H181v-54.1l53.8-.06V174a.8.8,0,0,0,1.6,0v-2.6h54V174a.79.79,0,0,0,.8.8.74.74,0,0,0,.8-.8v-2.6l53.3.06.05,3.32Z"/><text class="cls-1" transform="translate(225.85 187.59)">R/2</text></g></svg>