<svg xmlns="http://www.w3.org/2000/svg" viewBox="0 0 360 340"><defs><style>.cls-1{fill:#191918;isolation:isolate;opacity:0.25;}.cls-2,.cls-4{fill:#fff;}.cls-2{fill-opacity:0.4;}.cls-3{opacity:0.4;}</style></defs><g id="Layer_2" data-name="Layer 2"><path class="cls-1" d="M235.6,170.76H180v55.65a55.62,55.62,0,0,0,55.6-55.65Z"/><polygon class="cls-1" points="180 170.81 124.4 170.81 180 282.01 180 170.81"/><rect class="cls-1" x="69.35" y="59.35" width="110.65" height="111.46"/><path class="cls-2" d="M352,170.65l-6.7-3.9v3.1H292v-2.6a.8.8,0,0,0-1.6,0v2.6H236.3v-2.6a.8.8,0,0,0-1.6,0v2.6H180.6v-54.1h2.6a.8.8,0,1,0,0-1.6h-2.6v-54h2.6a.79.79,0,0,0,.8-.8.74.74,0,0,0-.8-.8h-2.6V16.25h3.1L180,9.55l-3.9,6.7h3.1v42.4h-2.6a.79.79,0,0,0-.8.8.74.74,0,0,0,.8.8h2.6v54.1h-2.6a.8.8,0,1,0,0,1.6h2.6v53.9H125.1v-2.6a.8.8,0,1,0-1.6,0v2.6h-54v-2.6a.79.79,0,0,0-.8-.8.71.71,0,0,0-.7.8v2.6H8.8a.79.79,0,0,0-.8.8.74.74,0,0,0,.8.8H68v2.6a.79.79,0,0,0,.8.8.74.74,0,0,0,.8-.8v-2.6h54.1v2.6a.8.8,0,1,0,1.6,0v-2.6h54.1v54.1h-2.6a.79.79,0,0,0-.8.8.74.74,0,0,0,.8.8h2.6v54.1h-2.6a.79.79,0,0,0-.8.8.74.74,0,0,0,.8.8h2.6v46.8a.79.79,0,0,0,.8.8.74.74,0,0,0,.8-.8v-46.8h2.6a.8.8,0,0,0,0-1.6H181v-54.1h2.6a.79.79,0,0,0,.8-.8.74.74,0,0,0-.8-.8H181v-54.1l53.8-.06V174a.8.8,0,0,0,1.6,0v-2.6h54V174a.79.79,0,0,0,.8.8.74.74,0,0,0,.8-.8v-2.6l53.3.06.05,3.32Z"/><g class="cls-3"><path class="cls-4" d="M193.11,110.34a4.83,4.83,0,0,1,1.74.26,2,2,0,0,1,1,.79,2.47,2.47,0,0,1,.34,1.36,2.28,2.28,0,0,1-.25,1.13,2.1,2.1,0,0,1-.64.74,3.24,3.24,0,0,1-.85.43l2.35,3.85h-1.16l-2.1-3.57h-1.78v3.57h-1v-8.56Zm-.06.86h-1.26v3.28h1.36a2.34,2.34,0,0,0,1.54-.42,1.59,1.59,0,0,0,.5-1.26,1.39,1.39,0,0,0-.53-1.24A2.86,2.86,0,0,0,193.05,111.2Z"/><path class="cls-4" d="M201.3,110.34l-3.19,8.56h-1l3.19-8.56Z"/><path class="cls-4" d="M207.63,118.9H202v-.81l2.29-2.33c.43-.43.79-.81,1.08-1.15a4.06,4.06,0,0,0,.66-1,2.58,2.58,0,0,0,.23-1.08,1.41,1.41,0,0,0-.43-1.11,1.68,1.68,0,0,0-1.13-.38,2.65,2.65,0,0,0-1.09.21,4.54,4.54,0,0,0-1,.6l-.52-.66a4.85,4.85,0,0,1,.74-.51,4.31,4.31,0,0,1,.86-.35,4,4,0,0,1,1-.13,3,3,0,0,1,1.36.28,2.05,2.05,0,0,1,.89.78,2.28,2.28,0,0,1,.31,1.22,3,3,0,0,1-.27,1.26,5.14,5.14,0,0,1-.75,1.15c-.33.38-.71.79-1.14,1.21L203.26,118v0h4.37Z"/><path class="cls-4" d="M289.86,179a5.06,5.06,0,0,1,1.74.26,2.05,2.05,0,0,1,1,.8,2.43,2.43,0,0,1,.34,1.36,2.28,2.28,0,0,1-.25,1.13,2.06,2.06,0,0,1-.64.73,3.28,3.28,0,0,1-.85.44l2.35,3.85h-1.16l-2.1-3.58h-1.78v3.58h-1V179Zm-.06.86h-1.26v3.29h1.36a2.28,2.28,0,0,0,1.54-.43,1.56,1.56,0,0,0,.5-1.26,1.39,1.39,0,0,0-.53-1.23A2.77,2.77,0,0,0,289.8,179.88Z"/><path class="cls-4" d="M229.34,179a5.06,5.06,0,0,1,1.74.26,2.05,2.05,0,0,1,1,.8,2.51,2.51,0,0,1,.34,1.36,2.39,2.39,0,0,1-.25,1.13,2.06,2.06,0,0,1-.64.73,3.28,3.28,0,0,1-.85.44l2.35,3.85H231.9L229.8,184H228v3.58h-1V179Zm-.06.86H228v3.29h1.36a2.28,2.28,0,0,0,1.54-.43,1.56,1.56,0,0,0,.5-1.26,1.39,1.39,0,0,0-.53-1.23A2.8,2.8,0,0,0,229.28,179.88Z"/><path class="cls-4" d="M237.53,179l-3.19,8.57h-1l3.19-8.57Z"/><path class="cls-4" d="M243.86,187.59h-5.61v-.82l2.29-2.32c.42-.43.78-.82,1.07-1.15a4.55,4.55,0,0,0,.67-1,2.58,2.58,0,0,0,.23-1.08,1.45,1.45,0,0,0-.43-1.11,1.64,1.64,0,0,0-1.14-.38,2.68,2.68,0,0,0-1.09.21,5.14,5.14,0,0,0-1,.59l-.52-.65a4.85,4.85,0,0,1,.74-.51A3.61,3.61,0,0,1,240,179a3.51,3.51,0,0,1,1-.13,3.19,3.19,0,0,1,1.37.27,2.14,2.14,0,0,1,.89.79,2.34,2.34,0,0,1,.31,1.21,2.94,2.94,0,0,1-.27,1.26,4.91,4.91,0,0,1-.76,1.16c-.32.38-.7.78-1.13,1.21l-1.87,1.86v0h4.38Z"/></g></g></svg>