<svg xmlns="http://www.w3.org/2000/svg" viewBox="0 0 220.95 220.95"><defs><style>.cls-1{fill:#f2789e;}.cls-2{fill:#f05f8d;}.cls-3{fill:#fff;}.cls-4{fill:#f2f4f8;}</style></defs><g id="Layer_2" data-name="Layer 2"><circle class="cls-1" cx="110.48" cy="110.48" r="110.48"/><path class="cls-2" d="M221,110.48A110.47,110.47,0,0,0,110.48,0V221A110.47,110.47,0,0,0,221,110.48Z"/><path class="cls-3" d="M177,104.82,72.21,51.4a6.34,6.34,0,0,0-9.08,7l8.21,37.29a6.35,6.35,0,0,0,5.07,4.88l40,7.28a2.65,2.65,0,0,1,0,5.21l-40,7.28a6.36,6.36,0,0,0-5.07,4.89l-8.21,37.28a6.35,6.35,0,0,0,9.08,7L177,116.14A6.36,6.36,0,0,0,177,104.82Z"/><path class="cls-4" d="M177,104.82,110.48,70.91v35.88l6,1.08a2.65,2.65,0,0,1,0,5.21l-6,1.08V150L177,116.14A6.36,6.36,0,0,0,177,104.82Z"/></g></svg>