<svg xmlns="http://www.w3.org/2000/svg" viewBox="0 0 220.95 227.5">
    <defs>
        <style>.cls-1{fill:#f2789e;}.cls-2{fill:#f05f8d;}.cls-3{fill:#fff;}.cls-4{fill:#f2f4f8;}</style>
    </defs>
    <g id="Layer_2" data-name="Layer 2">
        <circle class="cls-1" cx="110.48" cy="113.75" r="110.48"/>
        <path class="cls-2" d="M221,113.75A110.48,110.48,0,0,0,110.48,3.27v221A110.48,110.48,0,0,0,221,113.75Z"/>
        <path class="cls-3"
              d="M80.59,161.45,45,125.83a20,20,0,0,1,0-28.29h0a20,20,0,0,1,28.29,0l19.93,19.93a2.17,2.17,0,0,0,3.09,0L147.7,66.06a20,20,0,0,1,28.28,0h0a20,20,0,0,1,0,28.29l-67.1,67.11A20,20,0,0,1,80.59,161.45Z"/>
        <path class="cls-4" d="M176,66.05a20,20,0,0,0-28.28,0l-37.22,37.22v56.56L176,94.34a20,20,0,0,0,0-28.29Z"/>
    </g>
</svg>