<svg xmlns="http://www.w3.org/2000/svg" viewBox="0 0 137.07 137.07"><defs><style>.cls-1{fill:#f0608e;}.cls-2{fill:#f8bbd0;}</style></defs><g id="Layer_2" data-name="Layer 2"><path class="cls-1" d="M126.73,6a6.15,6.15,0,0,0-4.53-2H14.87a6.16,6.16,0,0,0-6.14,6.16,4.87,4.87,0,0,0,0,.54l9.34,104.49a6.17,6.17,0,0,0,4.48,5.38l44.26,12.29a6,6,0,0,0,3.29,0l44.37-12.29a6.16,6.16,0,0,0,4.49-5.38l9.34-104.49A6.16,6.16,0,0,0,126.73,6Z"/><path class="cls-2" d="M42.84,71.61H85.22l-2,20.1L67.43,97.35,48,90.41A6.15,6.15,0,0,0,43.83,102h0l21.51,7.69a6.25,6.25,0,0,0,4.14,0L91,102a6.15,6.15,0,0,0,4-5.17l3.07-30.74a6.15,6.15,0,0,0-5.51-6.73,6.08,6.08,0,0,0-.61,0H48.4L46.56,40.87H95.09a6.15,6.15,0,0,0,0-12.29H39.77a6.15,6.15,0,0,0-6.15,6.16q0,.3,0,.6l3.07,30.73A6.15,6.15,0,0,0,42.84,71.61Z"/></g></svg>