<svg xmlns="http://www.w3.org/2000/svg" viewBox="0 0 137.07 137.07"><defs><style>.cls-1{fill:#f8bbd0;}.cls-2{fill:#f0608e;}</style></defs><g id="Layer_2" data-name="Layer 2"><path class="cls-1" d="M65.8,107.78a3.86,3.86,0,0,1-3.86-3.86V65.2a3.86,3.86,0,0,1,3.86-3.86h43.09A19.45,19.45,0,0,1,112.14,100l-45.7,7.76A4.6,4.6,0,0,1,65.8,107.78Zm3.86-38.72v30.3l41.19-7a11.74,11.74,0,0,0-2-23.31Z"/><path class="cls-2" d="M100.74,52.73H33.48a3.89,3.89,0,0,0-3.84,4.46l6,40.32A25.94,25.94,0,0,0,61.3,119.63H72.93A25.94,25.94,0,0,0,98.59,97.51l6-40.32A3.89,3.89,0,0,0,100.74,52.73Z"/><path class="cls-1" d="M124.38,112.56H9.85a1.12,1.12,0,0,0-1,1.67l.89,1.59a28.34,28.34,0,0,0,24.71,14.45H99.76a28.32,28.32,0,0,0,24.7-14.45l.89-1.59A1.12,1.12,0,0,0,124.38,112.56Z"/><path class="cls-1" d="M58.73,49.36a4.3,4.3,0,0,1-3.09-1.19c-.31-.32-7.62-8-5.81-15.73.9-3.81,3.74-6.93,8.45-9.28,2.91-1.45,4.62-3.28,5.1-5.46a6.68,6.68,0,0,0-2.1-6.12A2.54,2.54,0,0,1,62,7.42a4.69,4.69,0,0,1,5.41.52c3.13,3.07,4.45,7,3.63,10.74-.59,2.66-2.54,6.47-8.51,9.44-2.89,1.44-4.54,3.19-5,5.35-1.24,5.22,4.35,11.12,4.4,11.17,1.26,1.32.9,3.17-.81,4.14A4.67,4.67,0,0,1,58.73,49.36Z"/><path class="cls-1" d="M75.92,47.68a4.4,4.4,0,0,1-3-1.08,2.51,2.51,0,0,1,.53-4.16c4.79-3,3.67-6.51,2.58-8.33-4.75-7.91,6.74-16.25,7.23-16.6a4.72,4.72,0,0,1,5.45.15,2.5,2.5,0,0,1-.18,4.17h0c-2.06,1.49-7.49,6.48-5.49,9.8C86.4,37.19,84.6,43.08,78.37,47A4.65,4.65,0,0,1,75.92,47.68Z"/></g></svg>