<svg xmlns="http://www.w3.org/2000/svg" viewBox="0 0 137.07 137.07"><defs><style>.cls-1{fill:#f8bbd0;}.cls-2{fill:#f0608e;}</style></defs><g id="Layer_2" data-name="Layer 2"><path class="cls-1" d="M126.73,6a6.15,6.15,0,0,0-4.53-2H14.87a6.16,6.16,0,0,0-6.14,6.16,4.87,4.87,0,0,0,0,.54l9.34,104.49a6.17,6.17,0,0,0,4.48,5.38l44.26,12.29a6,6,0,0,0,3.29,0l44.37-12.29a6.16,6.16,0,0,0,4.49-5.38l9.34-104.49A6.16,6.16,0,0,0,126.73,6Z"/><path class="cls-2" d="M85.22,70.05l-1.7,19.16-15,3.4-15-3.41-.62-6.85a6.44,6.44,0,0,0-12.82,1.14l1,11.53a6.44,6.44,0,0,0,5,5.71l21,4.76a6.53,6.53,0,0,0,2.85,0l21-4.76a6.46,6.46,0,0,0,5-5.71l5-56.59a6.43,6.43,0,0,0-6.41-7h-52a6.44,6.44,0,0,0,0,12.88h45L86.37,57.17"/></g></svg>