<svg xmlns="http://www.w3.org/2000/svg" viewBox="0 0 360 340"><defs><style>.cls-1,.cls-2{fill:#b2b2b2;}.cls-1{isolation:isolate;opacity:0.15;}</style></defs><g id="Layer_2" data-name="Layer 2"><path class="cls-1" d="M235.6,170.76H180v55.65a55.62,55.62,0,0,0,55.6-55.65Z"/><polygon class="cls-1" points="180 170.81 124.4 170.81 180 282.01 180 170.81"/><rect class="cls-1" x="69.35" y="59.35" width="110.65" height="111.46"/><path class="cls-2" d="M352,170.65l-6.7-3.9v3.1H292v-2.6a.8.8,0,0,0-1.6,0v2.6H236.3v-2.6a.8.8,0,0,0-1.6,0v2.6H180.6v-54.1h2.6a.8.8,0,1,0,0-1.6h-2.6v-54h2.6a.79.79,0,0,0,.8-.8.74.74,0,0,0-.8-.8h-2.6V16.25h3.1L180,9.55l-3.9,6.7h3.1v42.4h-2.6a.79.79,0,0,0-.8.8.74.74,0,0,0,.8.8h2.6v54.1h-2.6a.8.8,0,1,0,0,1.6h2.6v53.9H125.1v-2.6a.8.8,0,1,0-1.6,0v2.6h-54v-2.6a.79.79,0,0,0-.8-.8.71.71,0,0,0-.7.8v2.6H8.8a.79.79,0,0,0-.8.8.74.74,0,0,0,.8.8H68v2.6a.79.79,0,0,0,.8.8.74.74,0,0,0,.8-.8v-2.6h54.1v2.6a.8.8,0,1,0,1.6,0v-2.6h54.1v54.1h-2.6a.79.79,0,0,0-.8.8.74.74,0,0,0,.8.8h2.6v54.1h-2.6a.79.79,0,0,0-.8.8.74.74,0,0,0,.8.8h2.6v46.8a.79.79,0,0,0,.8.8.74.74,0,0,0,.8-.8v-46.8h2.6a.8.8,0,0,0,0-1.6H181v-54.1h2.6a.79.79,0,0,0,.8-.8.74.74,0,0,0-.8-.8H181v-54.1l53.8-.06V174a.8.8,0,0,0,1.6,0v-2.6h54V174a.79.79,0,0,0,.8.8.74.74,0,0,0,.8-.8v-2.6l53.3.06.05,3.32Z"/><path class="cls-2" d="M196.81,114.31a10.49,10.49,0,0,1-.15,1.87,4.53,4.53,0,0,1-.5,1.39,2.34,2.34,0,0,1-.88.86,2.63,2.63,0,0,1-1.3.3,2.44,2.44,0,0,1-1.58-.52,3.25,3.25,0,0,1-.93-1.51,8.33,8.33,0,0,1-.3-2.39,8.93,8.93,0,0,1,.27-2.35,3,3,0,0,1,.9-1.52,2.47,2.47,0,0,1,1.64-.53,2.41,2.41,0,0,1,1.6.52,3.1,3.1,0,0,1,.93,1.51A8.23,8.23,0,0,1,196.81,114.31Zm-4.67,0a8.63,8.63,0,0,0,.19,2,2.33,2.33,0,0,0,.58,1.19,1.5,1.5,0,0,0,1.07.39,1.48,1.48,0,0,0,1.07-.39,2.34,2.34,0,0,0,.59-1.19,8.57,8.57,0,0,0,.19-2,9.12,9.12,0,0,0-.18-2,2.38,2.38,0,0,0-.59-1.19,1.46,1.46,0,0,0-1.08-.4,1.42,1.42,0,0,0-1.07.4,2.38,2.38,0,0,0-.59,1.19A9.12,9.12,0,0,0,192.14,114.31Z"/><path class="cls-2" d="M198.3,118a.74.74,0,0,1,.2-.58.71.71,0,0,1,.49-.18.73.73,0,0,1,.5.18.71.71,0,0,1,.21.58.74.74,0,0,1-.21.59.73.73,0,0,1-.5.18.71.71,0,0,1-.49-.18A.78.78,0,0,1,198.3,118Z"/><path class="cls-2" d="M203.87,113.37a3.55,3.55,0,0,1,1.52.3,2.21,2.21,0,0,1,1,.86,2.46,2.46,0,0,1,.36,1.36,2.86,2.86,0,0,1-.39,1.52,2.4,2.4,0,0,1-1.09,1,3.92,3.92,0,0,1-1.71.35,6,6,0,0,1-1.24-.12,3.23,3.23,0,0,1-1-.35v-.93a3.7,3.7,0,0,0,1,.41,4.89,4.89,0,0,0,1.18.15,2.9,2.9,0,0,0,1.14-.2,1.6,1.6,0,0,0,.76-.64,2,2,0,0,0,.27-1.07,1.67,1.67,0,0,0-.52-1.32,2.46,2.46,0,0,0-1.66-.46,5.79,5.79,0,0,0-.79.06,6.4,6.4,0,0,0-.72.13l-.49-.33.33-4h4.26v.89h-3.43l-.22,2.59c.15,0,.34-.07.58-.1A6.18,6.18,0,0,1,203.87,113.37Z"/><path class="cls-2" d="M233.41,183a10.46,10.46,0,0,1-.15,1.86,4.53,4.53,0,0,1-.5,1.39,2.34,2.34,0,0,1-.88.86,2.63,2.63,0,0,1-1.3.3,2.44,2.44,0,0,1-1.58-.52,3.2,3.2,0,0,1-.93-1.51,8.28,8.28,0,0,1-.31-2.38,8.93,8.93,0,0,1,.28-2.36,3,3,0,0,1,.9-1.52,2.47,2.47,0,0,1,1.64-.53,2.41,2.41,0,0,1,1.6.52,3.17,3.17,0,0,1,.93,1.51A8.26,8.26,0,0,1,233.41,183Zm-4.67,0a9.26,9.26,0,0,0,.18,2,2.42,2.42,0,0,0,.59,1.19,1.51,1.51,0,0,0,1.07.4,1.49,1.49,0,0,0,1.07-.4,2.34,2.34,0,0,0,.59-1.19,8.54,8.54,0,0,0,.19-2,9.16,9.16,0,0,0-.18-2,2.38,2.38,0,0,0-.59-1.19,1.46,1.46,0,0,0-1.08-.4,1.42,1.42,0,0,0-1.07.4,2.38,2.38,0,0,0-.59,1.19A9.16,9.16,0,0,0,228.74,183Z"/><path class="cls-2" d="M234.9,186.7a.74.74,0,0,1,.2-.58.71.71,0,0,1,.49-.18.73.73,0,0,1,.5.18.71.71,0,0,1,.21.58.74.74,0,0,1-.21.59.73.73,0,0,1-.5.18.71.71,0,0,1-.49-.18A.78.78,0,0,1,234.9,186.7Z"/><path class="cls-2" d="M240.47,182.07a3.55,3.55,0,0,1,1.52.3,2.21,2.21,0,0,1,1,.86,2.46,2.46,0,0,1,.35,1.36,2.86,2.86,0,0,1-.38,1.52,2.46,2.46,0,0,1-1.09,1,3.92,3.92,0,0,1-1.71.35,6,6,0,0,1-1.24-.12,3.23,3.23,0,0,1-1-.35V186a3.7,3.7,0,0,0,1,.41,4.92,4.92,0,0,0,1.18.16,2.9,2.9,0,0,0,1.14-.21,1.64,1.64,0,0,0,.76-.64,1.94,1.94,0,0,0,.27-1.06,1.68,1.68,0,0,0-.52-1.33,2.46,2.46,0,0,0-1.66-.46,5.79,5.79,0,0,0-.79.06,6.4,6.4,0,0,0-.72.13l-.49-.33.33-4h4.26v.89h-3.43l-.22,2.59c.15,0,.34-.07.58-.1A6.18,6.18,0,0,1,240.47,182.07Z"/><path class="cls-2" d="M291.64,187.31h-.95v-6.66c0-.17,0-.32,0-.46l0-.43a2.45,2.45,0,0,1-.34.32l-.39.33-1,.78-.51-.66,2.32-1.79h.81Z"/></g></svg>