<svg xmlns="http://www.w3.org/2000/svg" viewBox="0 0 360 340"><defs><style>.cls-1{fill:#191918;isolation:isolate;opacity:0.25;}.cls-2{opacity:0.4;}.cls-3,.cls-4{fill:#fff;}.cls-4{fill-opacity:0.4;}</style></defs><g id="Layer_2" data-name="Layer 2"><path class="cls-1" d="M235.6,170.76H180v55.65a55.62,55.62,0,0,0,55.6-55.65Z"/><polygon class="cls-1" points="180 170.81 124.4 170.81 180 282.01 180 170.81"/><rect class="cls-1" x="69.35" y="59.35" width="110.65" height="111.46"/><g class="cls-2"><path class="cls-3" d="M196.77,118.61h-5.62v-.81l2.29-2.33c.43-.43.79-.81,1.08-1.15a4.94,4.94,0,0,0,.67-1,2.58,2.58,0,0,0,.22-1.08,1.41,1.41,0,0,0-.43-1.11,1.66,1.66,0,0,0-1.13-.38,2.68,2.68,0,0,0-1.09.21,4.49,4.49,0,0,0-1,.6l-.52-.66a4.4,4.4,0,0,1,.74-.51,3.87,3.87,0,0,1,.86-.35,3.42,3.42,0,0,1,1-.13,3,3,0,0,1,1.36.28,2,2,0,0,1,.89.78,2.25,2.25,0,0,1,.32,1.21,3,3,0,0,1-.27,1.27,5.19,5.19,0,0,1-.76,1.15c-.32.38-.7.78-1.14,1.21l-1.86,1.86v0h4.38Z"/><path class="cls-3" d="M238.21,187.31H232.6v-.81l2.29-2.33c.42-.43.78-.81,1.07-1.15a4.55,4.55,0,0,0,.67-1,2.58,2.58,0,0,0,.23-1.08,1.45,1.45,0,0,0-.43-1.11,1.69,1.69,0,0,0-1.14-.38,2.68,2.68,0,0,0-1.09.21,4.74,4.74,0,0,0-1,.6l-.52-.66a4.85,4.85,0,0,1,.74-.51,4.08,4.08,0,0,1,.86-.35,3.46,3.46,0,0,1,1-.13,3.07,3.07,0,0,1,1.37.28,2.05,2.05,0,0,1,.89.78,2.36,2.36,0,0,1,.31,1.21,3,3,0,0,1-.27,1.27,4.86,4.86,0,0,1-.76,1.15c-.32.38-.7.79-1.13,1.21l-1.87,1.86v0h4.38Z"/><path class="cls-3" d="M294.06,185.32h-1.29v2h-.94v-2h-4.15v-.82l4.08-5.8h1v5.75h1.29Zm-2.23-.87v-3.39c0-.17,0-.33,0-.48s0-.3,0-.44,0-.27,0-.4h0c-.08.16-.16.32-.26.5a4,4,0,0,1-.29.46l-2.64,3.75Z"/></g><path class="cls-4" d="M352,170.65l-6.7-3.9v3.1H292v-2.6a.8.8,0,0,0-1.6,0v2.6H236.3v-2.6a.8.8,0,0,0-1.6,0v2.6H180.6v-54.1h2.6a.8.8,0,1,0,0-1.6h-2.6v-54h2.6a.79.79,0,0,0,.8-.8.74.74,0,0,0-.8-.8h-2.6V16.25h3.1L180,9.55l-3.9,6.7h3.1v42.4h-2.6a.79.79,0,0,0-.8.8.74.74,0,0,0,.8.8h2.6v54.1h-2.6a.8.8,0,1,0,0,1.6h2.6v53.9H125.1v-2.6a.8.8,0,1,0-1.6,0v2.6h-54v-2.6a.79.79,0,0,0-.8-.8.71.71,0,0,0-.7.8v2.6H8.8a.79.79,0,0,0-.8.8.74.74,0,0,0,.8.8H68v2.6a.79.79,0,0,0,.8.8.74.74,0,0,0,.8-.8v-2.6h54.1v2.6a.8.8,0,1,0,1.6,0v-2.6h54.1v54.1h-2.6a.79.79,0,0,0-.8.8.74.74,0,0,0,.8.8h2.6v54.1h-2.6a.79.79,0,0,0-.8.8.74.74,0,0,0,.8.8h2.6v46.8a.79.79,0,0,0,.8.8.74.74,0,0,0,.8-.8v-46.8h2.6a.8.8,0,0,0,0-1.6H181v-54.1h2.6a.79.79,0,0,0,.8-.8.74.74,0,0,0-.8-.8H181v-54.1l53.8-.06V174a.8.8,0,0,0,1.6,0v-2.6h54V174a.79.79,0,0,0,.8.8.74.74,0,0,0,.8-.8v-2.6l53.3.06.05,3.32Z"/></g></svg>