<svg xmlns="http://www.w3.org/2000/svg" viewBox="0 0 360 340"><defs><style>.cls-1{fill:#191918;isolation:isolate;opacity:0.25;}.cls-2{opacity:0.4;}.cls-3,.cls-4{fill:#fff;}.cls-4{fill-opacity:0.4;}</style></defs><g id="Layer_2" data-name="Layer 2"><path class="cls-1" d="M235.6,170.76H180v55.65a55.62,55.62,0,0,0,55.6-55.65Z"/><polygon class="cls-1" points="180 170.81 124.4 170.81 180 282.01 180 170.81"/><rect class="cls-1" x="69.35" y="59.35" width="110.65" height="111.46"/><g class="cls-2"><path class="cls-3" d="M196.77,118.61h-5.61v-.81l2.29-2.33c.42-.43.78-.81,1.07-1.15a4.94,4.94,0,0,0,.67-1,2.58,2.58,0,0,0,.23-1.08,1.42,1.42,0,0,0-.44-1.11,1.64,1.64,0,0,0-1.13-.38,2.68,2.68,0,0,0-1.09.21,4.49,4.49,0,0,0-1,.6l-.52-.66a4.4,4.4,0,0,1,.74-.51,4.08,4.08,0,0,1,.86-.35,3.46,3.46,0,0,1,1-.13,3.07,3.07,0,0,1,1.37.28,2,2,0,0,1,.88.78,2.25,2.25,0,0,1,.32,1.21,3,3,0,0,1-.27,1.27,4.86,4.86,0,0,1-.76,1.15c-.32.38-.7.78-1.13,1.21l-1.87,1.86v0h4.38Z"/><path class="cls-3" d="M198.3,118a.74.74,0,0,1,.2-.58.72.72,0,0,1,.49-.18.68.68,0,0,1,.71.76.74.74,0,0,1-.21.59.71.71,0,0,1-.5.18.72.72,0,0,1-.49-.18A.78.78,0,0,1,198.3,118Z"/><path class="cls-3" d="M203.88,113.37a3.54,3.54,0,0,1,1.51.3,2.16,2.16,0,0,1,1,.86,2.46,2.46,0,0,1,.36,1.36,3,3,0,0,1-.38,1.52,2.48,2.48,0,0,1-1.1,1,3.92,3.92,0,0,1-1.71.35,6,6,0,0,1-1.24-.12,3.23,3.23,0,0,1-1-.35v-.93a3.82,3.82,0,0,0,1,.41,4.89,4.89,0,0,0,1.18.15,2.87,2.87,0,0,0,1.14-.2,1.6,1.6,0,0,0,.76-.64,2,2,0,0,0,.28-1.07,1.67,1.67,0,0,0-.53-1.32,2.45,2.45,0,0,0-1.65-.46,5.81,5.81,0,0,0-.8.06,6.4,6.4,0,0,0-.72.13l-.49-.33.33-4h4.26v.89h-3.43l-.21,2.59c.14,0,.33-.07.57-.1A6.22,6.22,0,0,1,203.88,113.37Z"/><path class="cls-3" d="M233.37,187.31h-5.61v-.82l2.29-2.32c.42-.43.78-.81,1.07-1.15a4.94,4.94,0,0,0,.67-1A2.58,2.58,0,0,0,232,181a1.41,1.41,0,0,0-.43-1.11,1.64,1.64,0,0,0-1.13-.38,2.68,2.68,0,0,0-1.09.21,4.49,4.49,0,0,0-1,.6l-.52-.66a4.4,4.4,0,0,1,.74-.51,3.61,3.61,0,0,1,.86-.35,3.46,3.46,0,0,1,1-.13,3.07,3.07,0,0,1,1.37.28,2,2,0,0,1,.88.78,2.25,2.25,0,0,1,.32,1.21,3,3,0,0,1-.27,1.27,5.07,5.07,0,0,1-.76,1.15c-.32.38-.7.78-1.14,1.21L229,186.38v0h4.38Z"/><path class="cls-3" d="M234.9,186.7a.74.74,0,0,1,.2-.58.72.72,0,0,1,.49-.18.68.68,0,0,1,.71.76.74.74,0,0,1-.21.59.71.71,0,0,1-.5.18.72.72,0,0,1-.49-.18A.78.78,0,0,1,234.9,186.7Z"/><path class="cls-3" d="M240.48,182.07a3.54,3.54,0,0,1,1.51.3,2.16,2.16,0,0,1,1,.86,2.46,2.46,0,0,1,.36,1.36,3,3,0,0,1-.38,1.52,2.48,2.48,0,0,1-1.1,1,3.92,3.92,0,0,1-1.71.35,6,6,0,0,1-1.24-.12,3.23,3.23,0,0,1-1-.35V186a3.82,3.82,0,0,0,1,.41,4.89,4.89,0,0,0,1.18.15,2.9,2.9,0,0,0,1.14-.2,1.6,1.6,0,0,0,.76-.64,2,2,0,0,0,.27-1.07,1.67,1.67,0,0,0-.52-1.32,2.45,2.45,0,0,0-1.65-.46,5.81,5.81,0,0,0-.8.06,6.69,6.69,0,0,0-.72.12l-.49-.32.33-4h4.26v.89h-3.43l-.22,2.59c.15,0,.34-.07.58-.1A6.22,6.22,0,0,1,240.48,182.07Z"/><path class="cls-3" d="M290.73,182.07a3.54,3.54,0,0,1,1.51.3,2.16,2.16,0,0,1,1,.86,2.46,2.46,0,0,1,.36,1.36,3,3,0,0,1-.38,1.52,2.48,2.48,0,0,1-1.1,1,3.92,3.92,0,0,1-1.71.35,6.07,6.07,0,0,1-1.24-.12,3.33,3.33,0,0,1-1-.35V186a3.82,3.82,0,0,0,1,.41,4.92,4.92,0,0,0,1.18.16,2.86,2.86,0,0,0,1.14-.21,1.6,1.6,0,0,0,.76-.64,2,2,0,0,0,.28-1.07,1.67,1.67,0,0,0-.53-1.32,2.45,2.45,0,0,0-1.65-.46,5.81,5.81,0,0,0-.8.06,6.4,6.4,0,0,0-.72.13l-.49-.33.33-4H293v.89h-3.43l-.21,2.59c.14,0,.34-.07.57-.1A6.22,6.22,0,0,1,290.73,182.07Z"/></g><path class="cls-4" d="M352,170.65l-6.7-3.9v3.1H292v-2.6a.8.8,0,0,0-1.6,0v2.6H236.3v-2.6a.8.8,0,0,0-1.6,0v2.6H180.6v-54.1h2.6a.8.8,0,1,0,0-1.6h-2.6v-54h2.6a.79.79,0,0,0,.8-.8.74.74,0,0,0-.8-.8h-2.6V16.25h3.1L180,9.55l-3.9,6.7h3.1v42.4h-2.6a.79.79,0,0,0-.8.8.74.74,0,0,0,.8.8h2.6v54.1h-2.6a.8.8,0,1,0,0,1.6h2.6v53.9H125.1v-2.6a.8.8,0,1,0-1.6,0v2.6h-54v-2.6a.79.79,0,0,0-.8-.8.71.71,0,0,0-.7.8v2.6H8.8a.79.79,0,0,0-.8.8.74.74,0,0,0,.8.8H68v2.6a.79.79,0,0,0,.8.8.74.74,0,0,0,.8-.8v-2.6h54.1v2.6a.8.8,0,1,0,1.6,0v-2.6h54.1v54.1h-2.6a.79.79,0,0,0-.8.8.74.74,0,0,0,.8.8h2.6v54.1h-2.6a.79.79,0,0,0-.8.8.74.74,0,0,0,.8.8h2.6v46.8a.79.79,0,0,0,.8.8.74.74,0,0,0,.8-.8v-46.8h2.6a.8.8,0,0,0,0-1.6H181v-54.1h2.6a.79.79,0,0,0,.8-.8.74.74,0,0,0-.8-.8H181v-54.1l53.8-.06V174a.8.8,0,0,0,1.6,0v-2.6h54V174a.79.79,0,0,0,.8.8.74.74,0,0,0,.8-.8v-2.6l53.3.06.05,3.32Z"/></g></svg>